# xmcd CD database file
#
# Track frame offsets:
#	150
#	22210
#	50932
#	78697
#	101365
#	126105
#	160405
#	183677
#	219452
#	246630
#	280187
#
# Disc length: 4065 seconds
#
# Revision: 0
# Processed by: cddbd v1.5.1PL0 Copyright (c) Steve Scherf et al.
# Submitted via: CDex 1.50
#
DISCID=ac0fdf0b
DTITLE=Enrico Pieranunzi - Marc Johnson - Joey Baron - Play Morricone 2
DYEAR=2002
DGENRE=Jazz
TTITLE0=Il Clan Dei Siciliani
TTITLE1=Ninfa Plebea
TTITLE2=I Malamondo
TTITLE3=I Malamondo
TTITLE4=The Next Night
TTITLE5=La Domenica Specialmente
TTITLE6=Il Vizietto
TTITLE7=Ninfa Plebea
TTITLE8=Il Prato
TTITLE9=Waltz For A Future Movie
TTITLE10=I Malamondo
EXTD=YEAR: 2002
EXTT0=
EXTT1=
EXTT2=
EXTT3=
EXTT4=
EXTT5=
EXTT6=
EXTT7=
EXTT8=
EXTT9=
EXTT10=
PLAYORDER=
